<?xml version="1.0" encoding="UTF-8"?>
<svg width="48px" height="48px" viewBox="0 0 48 48" version="1.1" xmlns="http://www.w3.org/2000/svg" xmlns:xlink="http://www.w3.org/1999/xlink">
    <!-- Generator: Sketch 52.6 (67491) - http://www.bohemiancoding.com/sketch -->
    <title>Path</title>
    <desc>Created with Sketch.</desc>
    <g id="Page-1" stroke="none" stroke-width="1" fill="none" fill-rule="evenodd">
        <g id="dismiss" transform="translate(-26.000000, -23.000000)" fill="#000000">
            <g id="Group" transform="translate(3.000000, 0.000000)">
                <g id="Path">
                    <path d="M45,45 L45,15.8873016 C45,14.7827321 45.8954305,13.8873016 47,13.8873016 C48.1045695,13.8873016 49,14.7827321 49,15.8873016 L49,45 L78.1126984,45 C79.2172679,45 80.1126984,45.8954305 80.1126984,47 C80.1126984,48.1045695 79.2172679,49 78.1126984,49 L49,49 L49,78.1126984 C49,79.2172679 48.1045695,80.1126984 47,80.1126984 C45.8954305,80.1126984 45,79.2172679 45,78.1126984 L45,49 L15.8873016,49 C14.7827321,49 13.8873016,48.1045695 13.8873016,47 C13.8873016,45.8954305 14.7827321,45 15.8873016,45 L45,45 Z" transform="translate(47.000000, 47.000000) rotate(45.000000) translate(-47.000000, -47.000000) "></path>
                </g>
            </g>
        </g>
    </g>
</svg>